<svg width="50" height="50" viewBox="0 0 50 50" fill="none" xmlns="http://www.w3.org/2000/svg">
<path d="M25 50C18.0357 50 12.128 48.2144 7.27679 44.6433C2.4256 41.0721 0 36.7232 0 31.5965C0 27.4776 1.65179 23.7859 4.95536 20.5215C8.25893 17.2571 12.5893 15.0552 17.9464 13.916C16.756 13.6969 15.5952 13.3792 14.4643 12.9629C13.3333 12.5467 12.3214 12.0099 11.4286 11.3526C9.46429 9.90662 8.1994 8.18677 7.63393 6.19306C7.06845 4.19934 6.93452 2.17276 7.23214 0.113322C10.0298 -0.105767 12.7827 -0.00717709 15.4911 0.409093C18.1994 0.825363 20.5357 1.75649 22.5 3.20248C23.869 4.2103 24.8661 5.34956 25.4911 6.62028C26.1161 7.891 26.5179 9.22744 26.6964 10.6296C27.4702 9.27126 28.4077 7.98959 29.5089 6.7846C30.6101 5.5796 31.8452 4.4732 33.2143 3.46539C33.869 2.98339 34.7024 2.7424 35.7143 2.7424C36.7262 2.7424 37.5595 2.98339 38.2143 3.46539C38.869 3.94739 39.1964 4.56084 39.1964 5.30574C39.1964 6.05065 38.869 6.6641 38.2143 7.14609C36.9048 8.11009 35.744 9.17267 34.7321 10.3338C33.7202 11.495 32.9762 12.7329 32.5 14.0474C37.7381 15.2743 41.9643 17.4981 45.1786 20.7187C48.3929 23.9393 50 27.5652 50 31.5965C50 36.7232 47.5744 41.0721 42.7232 44.6433C37.872 48.2144 31.9643 50 25 50ZM25 44.7418C29.9405 44.7418 34.1518 43.4602 37.6339 40.8968C41.1161 38.3335 42.8571 35.2334 42.8571 31.5965C42.8571 27.9596 41.1161 24.8595 37.6339 22.2961C34.1518 19.7328 29.9405 18.4511 25 18.4511C20.0595 18.4511 15.8482 19.7328 12.3661 22.2961C8.88393 24.8595 7.14286 27.9596 7.14286 31.5965C7.14286 35.2334 8.88393 38.3335 12.3661 40.8968C15.8482 43.4602 20.0595 44.7418 25 44.7418Z" fill="black"/>
</svg>
