<svg width="50" height="50" viewBox="0 0 50 50" fill="none" xmlns="http://www.w3.org/2000/svg">
<path d="M20.1786 45C19.6429 43.9167 18.9583 42.9167 18.125 42C17.2917 41.0833 16.3095 40.2292 15.1786 39.4375C14.0476 38.6458 12.8274 37.9479 11.5179 37.3438C10.2083 36.7396 8.77976 36.25 7.23214 35.875C7.35119 37.0833 7.76786 38.2083 8.48214 39.25C9.19643 40.2917 10.1488 41.2292 11.3393 42.0625C12.5298 42.8958 13.869 43.5729 15.3571 44.0938C16.8452 44.6146 18.4524 44.9167 20.1786 45ZM29.8214 45C31.5476 44.875 33.1548 44.5625 34.6429 44.0625C36.131 43.5625 37.4702 42.8958 38.6607 42.0625C39.8512 41.2292 40.8036 40.2917 41.5179 39.25C42.2321 38.2083 42.6786 37.0833 42.8571 35.875C41.3095 36.25 39.8661 36.7292 38.5268 37.3125C37.1875 37.8958 35.9524 38.5833 34.8214 39.375C33.6905 40.1667 32.7083 41.0312 31.875 41.9688C31.0417 42.9062 30.3571 43.9167 29.8214 45ZM25 22.5C28.9286 22.5 32.2917 21.5208 35.0893 19.5625C37.8869 17.6042 39.2857 15.25 39.2857 12.5V9.5L33.0357 13.1875L25 6.375L16.9643 13.1875L10.7143 9.5V12.5C10.7143 15.25 12.1131 17.6042 14.9107 19.5625C17.7083 21.5208 21.0714 22.5 25 22.5ZM21.4286 50C15.4762 50 10.4167 48.5417 6.25 45.625C2.08333 42.7083 0 39.1667 0 35V30C4.22619 29.9583 8.21429 30.5625 11.9643 31.8125C15.7143 33.0625 18.869 34.75 21.4286 36.875V27.3125C16.3095 26.7292 12.0536 25.0521 8.66071 22.2812C5.26786 19.5104 3.57143 16.25 3.57143 12.5V4C3.57143 2.91667 4.25595 2.15625 5.625 1.71875C6.99405 1.28125 8.27381 1.41667 9.46429 2.125L16.0714 6.125L22.2321 0.875C22.9464 0.291667 23.869 0 25 0C26.131 0 27.0536 0.291667 27.7679 0.875L33.9286 6.125L40.5357 2.125C41.7262 1.41667 43.006 1.28125 44.375 1.71875C45.744 2.15625 46.4286 2.91667 46.4286 4V12.5C46.4286 16.25 44.7321 19.5104 41.3393 22.2812C37.9464 25.0521 33.6905 26.7292 28.5714 27.3125V36.875C31.131 34.75 34.2857 33.0625 38.0357 31.8125C41.7857 30.5625 45.7738 29.9583 50 30V35C50 39.1667 47.9167 42.7083 43.75 45.625C39.5833 48.5417 34.5238 50 28.5714 50H21.4286Z" fill="black"/>
</svg>
