<svg width="50" height="50" viewBox="0 0 50 50" fill="none" xmlns="http://www.w3.org/2000/svg">
<path d="M25 50C21.5278 50 18.2755 49.3403 15.2431 48.0208C12.2106 46.7014 9.57176 44.919 7.32639 42.6736C5.08102 40.4282 3.29861 37.7894 1.97917 34.7569C0.659722 31.7245 0 28.4722 0 25C0 21.5278 0.659722 18.2755 1.97917 15.2431C3.29861 12.2106 5.08102 9.57176 7.32639 7.32639C9.57176 5.08102 12.2106 3.29861 15.2431 1.97917C18.2755 0.659722 21.5278 0 25 0C28.7963 0 32.3958 0.810185 35.7986 2.43056C39.2014 4.05093 42.0833 6.34259 44.4444 9.30556V2.77778H50V19.4444H33.3333V13.8889H40.9722C39.0741 11.2963 36.7361 9.25926 33.9583 7.77778C31.1806 6.2963 28.1944 5.55556 25 5.55556C19.5833 5.55556 14.9884 7.44213 11.2153 11.2153C7.44213 14.9884 5.55556 19.5833 5.55556 25C5.55556 30.4167 7.44213 35.0116 11.2153 38.7847C14.9884 42.5579 19.5833 44.4444 25 44.4444C29.8611 44.4444 34.1088 42.8704 37.7431 39.7222C41.3773 36.5741 43.5185 32.5926 44.1667 27.7778H49.8611C49.1667 34.1204 46.4468 39.4097 41.7014 43.6458C36.956 47.8819 31.3889 50 25 50ZM32.7778 36.6667L22.2222 26.1111V11.1111H27.7778V23.8889L36.6667 32.7778L32.7778 36.6667Z" fill="black"/>
</svg>
