<svg width="50" height="50" viewBox="0 0 50 50" fill="none" xmlns="http://www.w3.org/2000/svg">
<path d="M22.2222 50V27.8472C19.2593 27.8472 16.412 27.2801 13.6806 26.1458C10.9491 25.0116 8.54167 23.4028 6.45833 21.3194C4.375 19.2361 2.77778 16.8287 1.66667 14.0972C0.555556 11.3657 0 8.51852 0 5.55556V0H5.55556C8.47222 0 11.2963 0.56713 14.0278 1.70139C16.7593 2.83565 19.1667 4.44444 21.25 6.52778C22.6852 7.96296 23.8773 9.53704 24.8264 11.25C25.7755 12.963 26.5046 14.7917 27.0139 16.7361C27.2454 16.412 27.5 16.0995 27.7778 15.7986C28.0556 15.4977 28.3565 15.1852 28.6806 14.8611C30.7639 12.7778 33.1713 11.169 35.9028 10.0347C38.6343 8.90046 41.4815 8.33333 44.4444 8.33333H50V13.8889C50 16.8519 49.4329 19.6991 48.2986 22.4306C47.1644 25.162 45.5556 27.5694 43.4722 29.6528C41.3889 31.7361 38.9931 33.3333 36.2847 34.4444C33.5764 35.5556 30.7407 36.1111 27.7778 36.1111V50H22.2222ZM22.2222 22.2222C22.2222 20 21.794 17.8819 20.9375 15.8681C20.081 13.8542 18.8657 12.0602 17.2917 10.4861C15.7176 8.91204 13.9236 7.69676 11.9097 6.84028C9.89583 5.9838 7.77778 5.55556 5.55556 5.55556C5.55556 7.77778 5.97222 9.90741 6.80556 11.9444C7.63889 13.9815 8.84259 15.787 10.4167 17.3611C11.9907 18.9352 13.7963 20.1389 15.8333 20.9722C17.8704 21.8056 20 22.2222 22.2222 22.2222ZM27.7778 30.5556C30 30.5556 32.1181 30.1389 34.1319 29.3056C36.1458 28.4722 37.9398 27.2685 39.5139 25.6944C41.088 24.1204 42.3032 22.3148 43.1597 20.2778C44.0162 18.2407 44.4444 16.1111 44.4444 13.8889C42.2222 13.8889 40.0926 14.3171 38.0556 15.1736C36.0185 16.0301 34.213 17.2454 32.6389 18.8194C31.0648 20.3935 29.8611 22.1875 29.0278 24.2014C28.1944 26.2153 27.7778 28.3333 27.7778 30.5556Z" fill="black"/>
</svg>
